<?xml version="1.0" encoding="UTF-8"?>
<svg width="16px" height="16px" viewBox="0 0 16 16" version="1.1" xmlns="http://www.w3.org/2000/svg" xmlns:xlink="http://www.w3.org/1999/xlink">
    <title>favicon-apple</title>
    <g id="Logo" stroke="none" stroke-width="1" fill="none" fill-rule="evenodd">
        <g id="favicion-apple" fill="#000000" fill-rule="nonzero">
            <path d="M8.06423358,0.4 C9.35863747,0.4 10.562206,0.694444444 11.6749392,1.28333333 C12.7876723,1.87222222 13.696026,2.67222222 14.4,3.68333333 L14.4,3.68333333 L12.8841849,4.69166667 C12.3505272,3.925 11.6593268,3.31805556 10.8105839,2.87083333 C9.96184104,2.42361111 9.04639092,2.2 8.06423358,2.2 C7.27510138,2.2 6.52003244,2.35 5.79902676,2.65 C5.07802109,2.95 4.45778589,3.35416667 3.93832117,3.8625 C3.41885645,4.37083333 3.00583942,4.97777778 2.69927007,5.68333333 C2.39270073,6.38888889 2.23941606,7.12777778 2.23941606,7.9 C2.23941606,8.59444444 2.34302514,9.24583333 2.55024331,9.85416667 C2.75746148,10.4625 3.04416058,10.9930556 3.41034063,11.4458333 C3.77652068,11.8986111 4.20373074,12.2875 4.6919708,12.6125 C5.18021087,12.9375 5.71244931,13.1833333 6.28868613,13.35 C6.86492295,13.5166667 7.4567721,13.6 8.06423358,13.6 C9.00665045,13.6 9.90364964,13.4444444 10.7552311,13.1333333 L10.7552311,13.1333333 L10.7552311,12.5333333 C9.91500406,12.85 9.0378751,13.0083333 8.12384428,13.0083333 C7.43122466,13.0083333 6.76982968,12.8930556 6.13965937,12.6625 C5.50948905,12.4319444 4.94886456,12.1055556 4.45778589,11.6833333 C3.96670722,11.2611111 3.57639903,10.7222222 3.28686131,10.0666667 C2.9973236,9.41111111 2.85255474,8.68888889 2.85255474,7.9 C2.85255474,6.97777778 3.08532036,6.125 3.55085158,5.34166667 C4.01638281,4.55833333 4.64939173,3.93888889 5.44987835,3.48333333 C6.25036496,3.02777778 7.12181671,2.8 8.06423358,2.8 C8.94420114,2.8 9.76313869,3 10.5210462,3.4 C11.2789538,3.8 11.8963504,4.34444444 12.373236,5.03333333 L12.373236,5.03333333 L10.8574209,6.04166667 C10.5508516,5.59722222 10.1520276,5.24583333 9.66094891,4.9875 C9.16987024,4.72916667 8.63763179,4.6 8.06423358,4.6 C7.13317113,4.6 6.33836172,4.92222222 5.67980535,5.56666667 C5.02124899,6.21111111 4.6919708,6.98888889 4.6919708,7.9 C4.6919708,8.46111111 4.78564477,8.95694444 4.9729927,9.3875 C5.16034063,9.81805556 5.41723439,10.1625 5.74367397,10.4208333 C6.07011354,10.6791667 6.43345499,10.8736111 6.8336983,11.0041667 C7.23394161,11.1347222 7.66399027,11.2 8.12384428,11.2 C9.06626115,11.2 9.94339011,11.0083333 10.7552311,10.625 L10.7552311,10.625 L10.7552311,7.59166667 L12.5742921,7.59166667 L12.5742921,14.8 L11.3683698,14.8 C10.2896999,15.2 9.17128954,15.4 8.01313869,15.4 C7.00827251,15.4 6.0459854,15.2194444 5.12627737,14.8583333 C4.20656934,14.4972222 3.39756691,13.9958333 2.69927007,13.3541667 C2.00097324,12.7125 1.44318735,11.9180556 1.02591241,10.9708333 C0.60863747,10.0236111 0.4,9 0.4,7.9 C0.4,6.88333333 0.60296026,5.9125 1.00888078,4.9875 C1.4148013,4.0625 1.95981346,3.26527778 2.64391727,2.59583333 C3.32802109,1.92638889 4.14270073,1.39305556 5.0879562,0.995833333 C6.03321168,0.598611111 7.02530414,0.4 8.06423358,0.4 Z M15,7.6 L15,14.9 L13.2,14.9 L13.2,7.6 L15,7.6 Z" id="G"></path>
        </g>
    </g>
</svg>