<?xml version="1.0" encoding="UTF-8"?>
<svg width="74px" height="74px" viewBox="0 0 74 74" version="1.1" xmlns="http://www.w3.org/2000/svg" xmlns:xlink="http://www.w3.org/1999/xlink">
    <title>favicon</title>
    <defs>
        <path d="M37.953125,5.25 C43.296875,5.25 48.265625,6.4921875 52.859375,8.9765625 C57.453125,11.4609375 61.203125,14.8359375 64.109375,19.1015625 L64.109375,19.1015625 L62,20.4726562 C59.328125,16.5585938 55.8769531,13.4648438 51.6464844,11.1914062 C47.4160156,8.91796875 42.8515625,7.78125 37.953125,7.78125 C34.015625,7.78125 30.2480469,8.54882812 26.6503906,10.0839844 C23.0527344,11.6191406 19.953125,13.6875 17.3515625,16.2890625 C14.75,18.890625 12.6816406,21.9902344 11.1464844,25.5878906 C9.61132812,29.1855469 8.84375,32.953125 8.84375,36.890625 C8.84375,41.1328125 9.63476562,45.09375 11.2167969,48.7734375 C12.7988281,52.453125 14.9082031,55.5351562 17.5449219,58.0195312 C20.1816406,60.5039062 23.2460937,62.4550781 26.7382812,63.8730469 C30.2304687,65.2910156 33.8632812,66 37.6367187,66 C41.5976562,66 45.40625,65.3789062 49.0625,64.1367188 L49.0625,64.1367188 L49.0625,61.7109375 C45.5703125,62.8828125 41.9023437,63.46875 38.0585937,63.46875 C35.2695312,63.46875 32.5566406,63.0761719 29.9199219,62.2910156 C27.2832031,61.5058594 24.8457031,60.3457031 22.6074219,58.8105469 C20.3691406,57.2753906 18.4121094,55.4472656 16.7363281,53.3261719 C15.0605469,51.2050781 13.7480469,48.7324219 12.7988281,45.9082031 C11.8496094,43.0839844 11.375,40.078125 11.375,36.890625 C11.375,32.0859375 12.5644531,27.6445312 14.9433594,23.5664062 C17.3222656,19.4882812 20.5507812,16.2597656 24.6289062,13.8808594 C28.7070312,11.5019531 33.1484375,10.3125 37.953125,10.3125 C42.453125,10.3125 46.6367187,11.3613281 50.5039062,13.4589844 C54.3710937,15.5566406 57.5234375,18.3984375 59.9609375,21.984375 L59.9609375,21.984375 L57.8515625,23.3554688 C55.6484375,20.1210938 52.7949219,17.5605469 49.2910156,15.6738281 C45.7871094,13.7871094 42.0078125,12.84375 37.953125,12.84375 C34.6953125,12.84375 31.578125,13.4765625 28.6015625,14.7421875 C25.625,16.0078125 23.0644531,17.7128906 20.9199219,19.8574219 C18.7753906,22.0019531 17.0703125,24.5625 15.8046875,27.5390625 C14.5390625,30.515625 13.90625,33.6328125 13.90625,36.890625 C13.90625,39.8203125 14.3339844,42.5683594 15.1894531,45.1347656 C16.0449219,47.7011719 17.2285156,49.9394531 18.7402344,51.8496094 C20.2519531,53.7597656 22.015625,55.4003906 24.03125,56.7714844 C26.046875,58.1425781 28.2441406,59.1796875 30.6230469,59.8828125 C33.0019531,60.5859375 35.4453125,60.9375 37.953125,60.9375 C41.84375,60.9375 45.546875,60.28125 49.0625,58.96875 L49.0625,58.96875 L49.0625,56.4375 C45.59375,57.7734375 41.9726562,58.4414062 38.1992187,58.4414062 C35.3398437,58.4414062 32.609375,57.9550781 30.0078125,56.9824219 C27.40625,56.0097656 25.0917969,54.6328125 23.0644531,52.8515625 C21.0371094,51.0703125 19.4257812,48.796875 18.2304687,46.03125 C17.0351562,43.265625 16.4375,40.21875 16.4375,36.890625 C16.4375,33 17.3984375,29.4023438 19.3203125,26.0976562 C21.2421875,22.7929688 23.8554687,20.1796875 27.1601562,18.2578125 C30.4648437,16.3359375 34.0625,15.375 37.953125,15.375 C41.5859375,15.375 44.9667969,16.21875 48.0957031,17.90625 C51.2246094,19.59375 53.7734375,21.890625 55.7421875,24.796875 L55.7421875,24.796875 L53.6328125,26.1679688 C51.8984375,23.6367188 49.6542969,21.6269531 46.9003906,20.1386719 C44.1464844,18.6503906 41.1640625,17.90625 37.953125,17.90625 C34.5078125,17.90625 31.3320312,18.7558594 28.4257812,20.4550781 C25.5195312,22.1542969 23.2167969,24.4570312 21.5175781,27.3632812 C19.8183594,30.2695312 18.96875,33.4453125 18.96875,36.890625 C18.96875,39.28125 19.3085937,41.5078125 19.9882812,43.5703125 C20.6679687,45.6328125 21.6054687,47.4140625 22.8007812,48.9140625 C23.9960937,50.4140625 25.3964844,51.6914062 27.0019531,52.7460938 C28.6074219,53.8007812 30.3359375,54.5917969 32.1875,55.1191406 C34.0390625,55.6464844 35.9609375,55.9101562 37.953125,55.9101562 C41.9140625,55.9101562 45.6171875,55.125 49.0625,53.5546875 L49.0625,53.5546875 L49.0625,51.1289062 C45.734375,52.6054688 42.1367187,53.34375 38.2695312,53.34375 C36.0429687,53.34375 33.9453125,53.0039062 31.9765625,52.3242188 C30.0078125,51.6445312 28.2324219,50.6484375 26.6503906,49.3359375 C25.0683594,48.0234375 23.8144531,46.2949219 22.8886719,44.1503906 C21.9628906,42.0058594 21.5,39.5859375 21.5,36.890625 C21.5,34.6640625 21.9335937,32.5371094 22.8007812,30.5097656 C23.6679687,28.4824219 24.8398437,26.7304688 26.3164062,25.2539062 C27.7929687,23.7773438 29.5449219,22.6054688 31.5722656,21.7382812 C33.5996094,20.8710938 35.7265625,20.4375 37.953125,20.4375 C40.7421875,20.4375 43.3320312,21.0878906 45.7226562,22.3886719 C48.1132812,23.6894531 50.0585937,25.453125 51.5585937,27.6796875 L51.5585937,27.6796875 L49.484375,29.0507812 C48.21875,27.1757812 46.5722656,25.6933594 44.5449219,24.6035156 C42.5175781,23.5136719 40.3203125,22.96875 37.953125,22.96875 C34.109375,22.96875 30.828125,24.328125 28.109375,27.046875 C25.390625,29.765625 24.03125,33.046875 24.03125,36.890625 C24.03125,39.2578125 24.4179687,41.3496094 25.1914062,43.1660156 C25.9648437,44.9824219 27.0253906,46.4355469 28.3730469,47.5253906 C29.7207031,48.6152344 31.2207031,49.4355469 32.8730469,49.9863281 C34.5253906,50.5371094 36.3007812,50.8125 38.1992187,50.8125 C42.0898437,50.8125 45.7109375,50.0039062 49.0625,48.3867188 L49.0625,48.3867188 L49.0625,35.5898438 L51.59375,35.5898438 L51.59375,66 C47.140625,67.6875 42.5234375,68.53125 37.7421875,68.53125 C33.59375,68.53125 29.6210937,67.7695312 25.8242187,66.2460938 C22.0273437,64.7226562 18.6875,62.6074219 15.8046875,59.9003906 C12.921875,57.1933594 10.6191406,53.8417969 8.89648437,49.8457031 C7.17382812,45.8496094 6.3125,41.53125 6.3125,36.890625 C6.3125,32.6015625 7.15039062,28.5058594 8.82617187,24.6035156 C10.5019531,20.7011719 12.7519531,17.3378906 15.5761719,14.5136719 C18.4003906,11.6894531 21.7636719,9.43945312 25.6660156,7.76367188 C29.5683594,6.08789062 33.6640625,5.25 37.953125,5.25 Z M56.65625,35.5898438 L56.65625,66 L54.125,66 L54.125,35.5898438 L56.65625,35.5898438 Z M66.78125,35.5898438 L66.78125,66 L64.25,66 L64.25,35.5898438 L66.78125,35.5898438 Z M61.71875,35.5898438 L61.71875,66 L59.1875,66 L59.1875,35.5898438 L61.71875,35.5898438 Z" id="path-1"></path>
    </defs>
    <g id="Logo" stroke="none" stroke-width="1" fill="none" fill-rule="evenodd">
        <g id="Artboard" fill="#000000" fill-rule="nonzero">
            <g id="G">
                <use fill-opacity="0.883796745" xlink:href="#path-1"></use>
                <use xlink:href="#path-1"></use>
            </g>
        </g>
    </g>
</svg>