<?xml version="1.0" encoding="UTF-8"?>
<svg width="16px" height="16px" viewBox="0 0 16 16" version="1.1" xmlns="http://www.w3.org/2000/svg" xmlns:xlink="http://www.w3.org/1999/xlink">
    <title>favicion-apple</title>
    <defs>
        <path d="M7.66423358,0 C8.95863747,0 10.162206,0.294444444 11.2749392,0.883333333 C12.3876723,1.47222222 13.296026,2.27222222 14,3.28333333 L14,3.28333333 L12.4841849,4.29166667 C11.9505272,3.525 11.2593268,2.91805556 10.4105839,2.47083333 C9.56184104,2.02361111 8.64639092,1.8 7.66423358,1.8 C6.87510138,1.8 6.12003244,1.95 5.39902676,2.25 C4.67802109,2.55 4.05778589,2.95416667 3.53832117,3.4625 C3.01885645,3.97083333 2.60583942,4.57777778 2.29927007,5.28333333 C1.99270073,5.98888889 1.83941606,6.72777778 1.83941606,7.5 C1.83941606,8.19444444 1.94302514,8.84583333 2.15024331,9.45416667 C2.35746148,10.0625 2.64416058,10.5930556 3.01034063,11.0458333 C3.37652068,11.4986111 3.80373074,11.8875 4.2919708,12.2125 C4.78021087,12.5375 5.31244931,12.7833333 5.88868613,12.95 C6.46492295,13.1166667 7.0567721,13.2 7.66423358,13.2 C8.60665045,13.2 9.50364964,13.0444444 10.3552311,12.7333333 L10.3552311,12.7333333 L10.3552311,12.1333333 C9.51500406,12.45 8.6378751,12.6083333 7.72384428,12.6083333 C7.03122466,12.6083333 6.36982968,12.4930556 5.73965937,12.2625 C5.10948905,12.0319444 4.54886456,11.7055556 4.05778589,11.2833333 C3.56670722,10.8611111 3.17639903,10.3222222 2.88686131,9.66666667 C2.5973236,9.01111111 2.45255474,8.28888889 2.45255474,7.5 C2.45255474,6.57777778 2.68532036,5.725 3.15085158,4.94166667 C3.61638281,4.15833333 4.24939173,3.53888889 5.04987835,3.08333333 C5.85036496,2.62777778 6.72181671,2.4 7.66423358,2.4 C8.54420114,2.4 9.36313869,2.6 10.1210462,3 C10.8789538,3.4 11.4963504,3.94444444 11.973236,4.63333333 L11.973236,4.63333333 L10.4574209,5.64166667 C10.1508516,5.19722222 9.75202758,4.84583333 9.26094891,4.5875 C8.76987024,4.32916667 8.23763179,4.2 7.66423358,4.2 C6.73317113,4.2 5.93836172,4.52222222 5.27980535,5.16666667 C4.62124899,5.81111111 4.2919708,6.58888889 4.2919708,7.5 C4.2919708,8.06111111 4.38564477,8.55694444 4.5729927,8.9875 C4.76034063,9.41805556 5.01723439,9.7625 5.34367397,10.0208333 C5.67011354,10.2791667 6.03345499,10.4736111 6.4336983,10.6041667 C6.83394161,10.7347222 7.26399027,10.8 7.72384428,10.8 C8.66626115,10.8 9.54339011,10.6083333 10.3552311,10.225 L10.3552311,10.225 L10.3552311,7.19166667 L12.1742921,7.19166667 L12.1742921,14.4 L10.9683698,14.4 C9.88969992,14.8 8.77128954,15 7.61313869,15 C6.60827251,15 5.6459854,14.8194444 4.72627737,14.4583333 C3.80656934,14.0972222 2.99756691,13.5958333 2.29927007,12.9541667 C1.60097324,12.3125 1.04318735,11.5180556 0.625912409,10.5708333 C0.20863747,9.62361111 0,8.6 0,7.5 C0,6.48333333 0.20296026,5.5125 0.608880779,4.5875 C1.0148013,3.6625 1.55981346,2.86527778 2.24391727,2.19583333 C2.92802109,1.52638889 3.74270073,0.993055556 4.6879562,0.595833333 C5.63321168,0.198611111 6.62530414,0 7.66423358,0 Z M15,7 L15,15 L13,15 L13,7 L15,7 Z" id="path-1"></path>
    </defs>
    <g id="Logo" stroke="none" stroke-width="1" fill="none" fill-rule="evenodd">
        <g id="favicion-apple" fill="#000000" fill-rule="nonzero">
            <g id="G">
                <use fill-opacity="0.883796745" xlink:href="#path-1"></use>
                <use xlink:href="#path-1"></use>
            </g>
        </g>
    </g>
</svg>