<?xml version="1.0" encoding="UTF-8"?>
<svg width="16px" height="16px" viewBox="0 0 16 16" version="1.1" xmlns="http://www.w3.org/2000/svg" xmlns:xlink="http://www.w3.org/1999/xlink">
    <title>favicon</title>
    <g id="Logo" stroke="none" stroke-width="1" fill="none" fill-rule="evenodd">
        <g id="favicon">
            <path d="M8,0 C12.418278,0 16,3.581722 16,8 C16,9.25125378 15.712739,10.4354142 15.2005685,11.4901298 L15.2,15.2 L11.4901298,15.2005685 C10.4354142,15.712739 9.25125378,16 8,16 C3.581722,16 0,12.418278 0,8 C0,3.581722 3.581722,0 8,0 Z" id="Oval-2" fill="#000000"></path>
            <path d="M8.11678832,1 C9.31873479,1 10.4363341,1.27481481 11.4695864,1.82444444 C12.5028386,2.37407407 13.3463098,3.12074074 14,4.06444444 L14,4.06444444 L12.5924574,5.00555556 C12.0969181,4.29 11.4550892,3.72351852 10.6669708,3.30611111 C9.87885239,2.8887037 9.02879157,2.68 8.11678832,2.68 C7.38402271,2.68 6.68288727,2.82 6.013382,3.1 C5.34387672,3.38 4.76794404,3.75722222 4.28558394,4.23166667 C3.80322384,4.70611111 3.41970803,5.27259259 3.1350365,5.93111111 C2.85036496,6.58962963 2.7080292,7.27925926 2.7080292,8 C2.7080292,8.64814815 2.80423763,9.25611111 2.9966545,9.82388889 C3.18907137,10.3916667 3.45529197,10.8868519 3.7953163,11.3094444 C4.13534063,11.732037 4.53203569,12.095 4.98540146,12.3983333 C5.43876723,12.7016667 5.93298865,12.9311111 6.46806569,13.0866667 C7.00314274,13.2422222 7.55271695,13.32 8.11678832,13.32 C8.9918897,13.32 9.82481752,13.1748148 10.6155718,12.8844444 L10.6155718,12.8844444 L10.6155718,12.3244444 C9.83536091,12.62 9.02088402,12.7677778 8.17214112,12.7677778 C7.52899432,12.7677778 6.91484185,12.6601852 6.3296837,12.445 C5.74452555,12.2298148 5.22394566,11.9251852 4.76794404,11.5311111 C4.31194242,11.137037 3.94951338,10.6340741 3.68065693,10.0222222 C3.41180049,9.41037037 3.27737226,8.7362963 3.27737226,8 C3.27737226,7.13925926 3.49351176,6.34333333 3.92579075,5.61222222 C4.35806975,4.88111111 4.94586375,4.30296296 5.68917275,3.87777778 C6.43248175,3.45259259 7.24168694,3.24 8.11678832,3.24 C8.93390105,3.24 9.69434307,3.42666667 10.3981144,3.8 C11.1018856,4.17333333 11.6751825,4.68148148 12.1180049,5.32444444 L12.1180049,5.32444444 L10.7104623,6.26555556 C10.4257908,5.85074074 10.0554542,5.52277778 9.59945255,5.28166667 C9.14345093,5.04055556 8.64922952,4.92 8.11678832,4.92 C7.25223033,4.92 6.51419303,5.22074074 5.9026764,5.82222222 C5.29115977,6.4237037 4.98540146,7.14962963 4.98540146,8 C4.98540146,8.5237037 5.07238443,8.98648148 5.24635036,9.38833333 C5.4203163,9.79018519 5.6588605,10.1116667 5.96198297,10.3527778 C6.26510543,10.5938889 6.60249392,10.7753704 6.97414842,10.8972222 C7.34580292,11.0190741 7.74513382,11.08 8.17214112,11.08 C9.0472425,11.08 9.86171938,10.9011111 10.6155718,10.5433333 L10.6155718,10.5433333 L10.6155718,7.71222222 L12.3046998,7.71222222 L12.3046998,14.44 L11.1849148,14.44 C10.1832928,14.8133333 9.14476886,15 8.06934307,15 C7.13625304,15 6.24270073,14.8314815 5.38868613,14.4944444 C4.53467153,14.1574074 3.78345499,13.6894444 3.1350365,13.0905556 C2.486618,12.4916667 1.96867397,11.7501852 1.58120438,10.8661111 C1.19373479,9.98203704 1,9.02666667 1,8 C1,7.05111111 1.1884631,6.145 1.56538929,5.28166667 C1.94231549,4.41833333 2.44839822,3.67425926 3.08363747,3.04944444 C3.71887672,2.42462963 4.47536496,1.92685185 5.35310219,1.55611111 C6.23083942,1.18537037 7.15206813,1 8.11678832,1 Z M14.5,7.7 L14.5,14.5 L12.8,14.5 L12.8,7.7 L14.5,7.7 Z" id="G" fill="#FFFFFF" fill-rule="nonzero"></path>
        </g>
    </g>
</svg>